<svg width="14" height="12" viewBox="0 0 14 12" fill="none" xmlns="http://www.w3.org/2000/svg">
<g clip-path="url(#clip0_20_500)">
<rect width="14" height="12" fill="white"/>
<mask id="path-1-inside-1_20_500" fill="white">
<path fill-rule="evenodd" clip-rule="evenodd" d="M6.98155 9.67608C10.6424 9.67608 13.6101 7.51001 13.6101 4.83804C13.6101 2.16606 10.6424 0 6.98155 0C3.32071 0 0.353016 2.16606 0.353016 4.83804C0.353016 5.92314 0.842452 6.92481 1.66899 7.73185L0 11.5461L5.29792 9.51864C5.83554 9.62138 6.39979 9.67608 6.98155 9.67608Z"/>
</mask>
<path d="M1.66899 7.73185L2.58512 8.13272L2.86226 7.49935L2.36761 7.01636L1.66899 7.73185ZM0 11.5461L-0.916136 11.1452L-1.87383 13.3339L0.357414 12.4801L0 11.5461ZM5.29792 9.51864L5.48562 8.53641L5.2062 8.48301L4.9405 8.58469L5.29792 9.51864ZM12.6101 4.83804C12.6101 5.77684 12.0907 6.71291 11.0791 7.45132C10.0682 8.18913 8.62276 8.67608 6.98155 8.67608V10.6761C9.00117 10.6761 10.87 10.08 12.2582 9.06678C13.6456 8.05416 14.6101 6.57121 14.6101 4.83804H12.6101ZM6.98155 1C8.62276 1 10.0682 1.48695 11.0791 2.22476C12.0907 2.96316 12.6101 3.89923 12.6101 4.83804H14.6101C14.6101 3.10487 13.6456 1.62192 12.2582 0.609296C10.87 -0.403918 9.00117 -1 6.98155 -1V1ZM1.35302 4.83804C1.35302 3.89923 1.87234 2.96316 2.88402 2.22476C3.89488 1.48695 5.34033 1 6.98155 1V-1C4.96192 -1 3.09311 -0.403918 1.70492 0.609296C0.317536 1.62192 -0.646984 3.10487 -0.646984 4.83804H1.35302ZM2.36761 7.01636C1.6957 6.36029 1.35302 5.60483 1.35302 4.83804H-0.646984C-0.646984 6.24145 -0.0107925 7.48932 0.970365 8.44734L2.36761 7.01636ZM0.916136 11.947L2.58512 8.13272L0.75285 7.33098L-0.916136 11.1452L0.916136 11.947ZM4.9405 8.58469L-0.357414 10.6122L0.357414 12.4801L5.65533 10.4526L4.9405 8.58469ZM6.98155 8.67608C6.46235 8.67608 5.96096 8.62725 5.48562 8.53641L5.11021 10.5009C5.71012 10.6155 6.33723 10.6761 6.98155 10.6761V8.67608Z" fill="#356DEB" mask="url(#path-1-inside-1_20_500)"/>
</g>
<defs>
<clipPath id="clip0_20_500">
<rect width="14" height="12" fill="white"/>
</clipPath>
</defs>
</svg>
